<svg width="72" height="30" viewBox="0 0 72 30" fill="none" xmlns="http://www.w3.org/2000/svg">
<rect width="72" height="30" rx="15" fill="#65E4A3"/>
<path d="M22.7725 20H20.811V15.9946H17.1357V20H15.168V10.7197H17.1357V14.3569H20.811V10.7197H22.7725V20ZM26.9048 12.9033V20H24.9688V12.9033H26.9048ZM25.9399 10.123C26.2277 10.123 26.4753 10.1908 26.6826 10.3262C26.89 10.4574 26.9937 10.7049 26.9937 11.0688C26.9937 11.4285 26.89 11.6782 26.6826 11.8179C26.4753 11.9533 26.2277 12.021 25.9399 12.021C25.6479 12.021 25.3983 11.9533 25.1909 11.8179C24.9878 11.6782 24.8862 11.4285 24.8862 11.0688C24.8862 10.7049 24.9878 10.4574 25.1909 10.3262C25.3983 10.1908 25.6479 10.123 25.9399 10.123ZM32.9033 12.77C33.0007 12.77 33.1128 12.7764 33.2397 12.7891C33.3709 12.7975 33.4767 12.8102 33.5571 12.8271L33.4111 14.6426C33.3477 14.6214 33.2567 14.6066 33.1382 14.5981C33.0239 14.5854 32.9245 14.5791 32.8398 14.5791C32.5902 14.5791 32.3468 14.6108 32.1099 14.6743C31.8771 14.7378 31.6676 14.8415 31.4814 14.9854C31.2952 15.125 31.1471 15.3112 31.0371 15.5439C30.9313 15.7725 30.8784 16.0539 30.8784 16.3882V20H28.9424V12.9033H30.4087L30.6943 14.0967H30.7896C30.9292 13.8555 31.1027 13.6354 31.3101 13.4365C31.5216 13.2334 31.7607 13.0726 32.0273 12.9541C32.2982 12.8314 32.5902 12.77 32.9033 12.77ZM36.7817 12.9033V20H34.8457V12.9033H36.7817ZM35.8169 10.123C36.1047 10.123 36.3522 10.1908 36.5596 10.3262C36.7669 10.4574 36.8706 10.7049 36.8706 11.0688C36.8706 11.4285 36.7669 11.6782 36.5596 11.8179C36.3522 11.9533 36.1047 12.021 35.8169 12.021C35.5249 12.021 35.2752 11.9533 35.0679 11.8179C34.8647 11.6782 34.7632 11.4285 34.7632 11.0688C34.7632 10.7049 34.8647 10.4574 35.0679 10.3262C35.2752 10.1908 35.5249 10.123 35.8169 10.123ZM42.8501 12.77C43.6076 12.77 44.217 12.9774 44.6782 13.3921C45.1395 13.8026 45.3701 14.4627 45.3701 15.3726V20H43.4341V15.855C43.4341 15.3472 43.341 14.9642 43.1548 14.7061C42.9728 14.4479 42.6851 14.3188 42.2915 14.3188C41.6991 14.3188 41.2949 14.5199 41.0791 14.9219C40.8633 15.3239 40.7554 15.9036 40.7554 16.6611V20H38.8193V12.9033H40.2983L40.5586 13.811H40.6665C40.8188 13.5656 41.0072 13.3667 41.2314 13.2144C41.46 13.062 41.7118 12.9499 41.9868 12.8779C42.2661 12.806 42.5539 12.77 42.8501 12.77ZM49.439 23.123C48.4487 23.123 47.6912 22.9495 47.1665 22.6025C46.646 22.2598 46.3857 21.7773 46.3857 21.1553C46.3857 20.7279 46.519 20.3703 46.7856 20.0825C47.0522 19.7948 47.4437 19.5895 47.96 19.4668C47.7611 19.3822 47.5876 19.2446 47.4395 19.0542C47.2913 18.8595 47.2173 18.6543 47.2173 18.4385C47.2173 18.1676 47.2956 17.9434 47.4521 17.7656C47.6087 17.5837 47.8351 17.4059 48.1313 17.2324C47.759 17.0716 47.4627 16.8135 47.2427 16.458C47.0269 16.1025 46.9189 15.6836 46.9189 15.2012C46.9189 14.6849 47.0311 14.2469 47.2554 13.8872C47.4839 13.5233 47.814 13.2461 48.2456 13.0557C48.6815 12.8652 49.2104 12.77 49.8325 12.77C49.9637 12.77 50.116 12.7785 50.2896 12.7954C50.4631 12.8123 50.6217 12.8314 50.7656 12.8525C50.9137 12.8737 51.0132 12.8906 51.064 12.9033H53.5396V13.8872L52.4287 14.1729C52.5303 14.3294 52.6064 14.4966 52.6572 14.6743C52.708 14.8521 52.7334 15.0404 52.7334 15.2393C52.7334 16.001 52.4668 16.5955 51.9336 17.0229C51.4046 17.4461 50.6683 17.6577 49.7246 17.6577C49.5003 17.645 49.2887 17.6281 49.0898 17.6069C48.9925 17.6831 48.9185 17.7635 48.8677 17.8481C48.8169 17.9328 48.7915 18.0216 48.7915 18.1147C48.7915 18.2078 48.8296 18.2861 48.9058 18.3496C48.9862 18.4089 49.1047 18.4554 49.2612 18.4893C49.422 18.5189 49.6209 18.5337 49.8579 18.5337H51.064C51.8426 18.5337 52.4351 18.7008 52.8413 19.0352C53.2518 19.3695 53.457 19.8604 53.457 20.5078C53.457 21.3372 53.11 21.9805 52.416 22.4375C51.7262 22.8945 50.7339 23.123 49.439 23.123ZM49.5215 21.8599C49.9827 21.8599 50.3784 21.8154 50.7085 21.7266C51.0428 21.6419 51.2988 21.5192 51.4766 21.3584C51.6543 21.2018 51.7432 21.0135 51.7432 20.7935C51.7432 20.6157 51.6903 20.474 51.5845 20.3682C51.4829 20.2666 51.3263 20.1947 51.1147 20.1523C50.9074 20.11 50.6408 20.0889 50.3149 20.0889H49.312C49.075 20.0889 48.8613 20.127 48.6709 20.2031C48.4847 20.2793 48.3366 20.3851 48.2266 20.5205C48.1165 20.6602 48.0615 20.821 48.0615 21.0029C48.0615 21.2695 48.1885 21.479 48.4424 21.6313C48.7005 21.7837 49.0602 21.8599 49.5215 21.8599ZM49.8325 16.4771C50.1965 16.4771 50.4631 16.3649 50.6323 16.1406C50.8016 15.9163 50.8862 15.6117 50.8862 15.2266C50.8862 14.7992 50.7974 14.4797 50.6196 14.2681C50.4461 14.0522 50.1838 13.9443 49.8325 13.9443C49.4771 13.9443 49.2104 14.0522 49.0327 14.2681C48.855 14.4797 48.7661 14.7992 48.7661 15.2266C48.7661 15.6117 48.8529 15.9163 49.0264 16.1406C49.2041 16.3649 49.4728 16.4771 49.8325 16.4771ZM56.3389 16.9214H54.79L54.4663 10.7197H56.6626L56.3389 16.9214ZM54.4409 19.0923C54.4409 18.6945 54.5488 18.4152 54.7646 18.2544C54.9847 18.0936 55.2492 18.0132 55.5581 18.0132C55.8586 18.0132 56.1167 18.0936 56.3325 18.2544C56.5526 18.4152 56.6626 18.6945 56.6626 19.0923C56.6626 19.4731 56.5526 19.7482 56.3325 19.9175C56.1167 20.0868 55.8586 20.1714 55.5581 20.1714C55.2492 20.1714 54.9847 20.0868 54.7646 19.9175C54.5488 19.7482 54.4409 19.4731 54.4409 19.0923Z" fill="#0A2640"/>
</svg>
